<svg width="34" height="34" viewBox="0 0 34 34" fill="none" xmlns="http://www.w3.org/2000/svg">
<g clip-path="url(#clip0_9_788)">
<path fill-rule="evenodd" clip-rule="evenodd" d="M17.0003 0.708374C12.9646 0.710468 9.06113 2.13986 5.98801 4.74095C2.91489 7.34204 0.872479 10.9452 0.225971 14.9062C-0.420538 18.8672 0.371012 22.9277 2.4591 26.3616C4.54719 29.7956 7.79564 32.379 11.6236 33.6501C12.4681 33.8068 12.7862 33.2834 12.7862 32.8384C12.7862 32.3933 12.7693 31.103 12.7637 29.6923C8.03443 30.7139 7.0351 27.6966 7.0351 27.6966C6.26378 25.7372 5.14902 25.2222 5.14902 25.2222C3.60638 24.1754 5.26444 24.195 5.26444 24.195C6.97317 24.3153 7.87117 25.9388 7.87117 25.9388C9.38566 28.5223 11.8488 27.7749 12.8172 27.3383C12.9692 26.2439 13.4112 25.4993 13.8982 25.0767C10.1204 24.6512 6.15117 23.2013 6.15117 16.7244C6.12776 15.0446 6.75465 13.4202 7.90213 12.1872C7.7276 11.7617 7.14488 10.0431 8.06821 7.70873C8.06821 7.70873 9.49545 7.25529 12.744 9.44133C15.5304 8.68367 18.4703 8.68367 21.2567 9.44133C24.5024 7.25529 25.9268 7.70873 25.9268 7.70873C26.8529 10.0375 26.2702 11.7561 26.0957 12.1872C27.2468 13.4204 27.875 15.0477 27.8495 16.73C27.8495 23.2209 23.8718 24.6512 20.0884 25.0683C20.6965 25.5945 21.2398 26.6217 21.2398 28.2004C21.2398 30.462 21.2201 32.2814 21.2201 32.8384C21.2201 33.289 21.5269 33.8152 22.3883 33.6501C26.2167 32.3789 29.4655 29.795 31.5535 26.3604C33.6416 22.9259 34.4327 18.8648 33.7855 14.9034C33.1382 10.9421 31.0948 7.33888 28.0207 4.73823C24.9465 2.13759 21.0422 0.709141 17.0059 0.708374H17.0003Z" fill="white"/>
<path d="M6.43796 24.9786C6.40137 25.0626 6.26624 25.0878 6.15646 25.029C6.04667 24.9702 5.96504 24.8611 6.00445 24.7743C6.04386 24.6875 6.17617 24.6652 6.28596 24.7239C6.39574 24.7827 6.48019 24.8947 6.43796 24.9786Z" fill="white"/>
<path d="M7.12766 25.7428C7.06936 25.772 7.00266 25.7801 6.93898 25.7658C6.87531 25.7515 6.81861 25.7157 6.77859 25.6644C6.66881 25.5468 6.64628 25.3845 6.73073 25.3117C6.81518 25.239 6.9672 25.2725 7.07699 25.3901C7.18677 25.5077 7.21211 25.67 7.12766 25.7428Z" fill="white"/>
<path d="M7.79773 26.7141C7.69358 26.7868 7.51622 26.7141 7.41769 26.5685C7.39045 26.5424 7.36878 26.5111 7.35398 26.4765C7.33918 26.4418 7.33154 26.4046 7.33154 26.367C7.33154 26.3294 7.33918 26.2921 7.35398 26.2575C7.36878 26.2229 7.39045 26.1916 7.41769 26.1655C7.52185 26.0955 7.69921 26.1655 7.79773 26.3082C7.89626 26.451 7.89907 26.6413 7.79773 26.7141Z" fill="white"/>
<path d="M8.70696 27.6546C8.61406 27.7581 8.42546 27.7301 8.27063 27.5902C8.1158 27.4502 8.0792 27.2599 8.17209 27.1591C8.26499 27.0584 8.4536 27.0864 8.61406 27.2235C8.77451 27.3607 8.80548 27.5538 8.70696 27.6546Z" fill="white"/>
<path d="M9.98204 28.2032C9.93981 28.3347 9.74839 28.3935 9.55697 28.3375C9.36554 28.2816 9.23887 28.1248 9.27546 27.9905C9.31206 27.8561 9.5063 27.7945 9.70054 27.8561C9.89477 27.9177 10.0186 28.066 9.98204 28.2032Z" fill="white"/>
<path d="M11.3728 28.2982C11.3728 28.4354 11.2151 28.553 11.0124 28.5558C10.8098 28.5586 10.6437 28.4466 10.6437 28.3094C10.6437 28.1723 10.8013 28.0547 11.004 28.0519C11.2067 28.0491 11.3728 28.1583 11.3728 28.2982Z" fill="white"/>
<path d="M12.6677 28.0828C12.6931 28.2199 12.5523 28.3627 12.3496 28.3962C12.1469 28.4298 11.9696 28.3487 11.9443 28.2143C11.9189 28.08 12.0653 27.9344 12.2624 27.898C12.4594 27.8616 12.6424 27.9456 12.6677 28.0828Z" fill="white"/>
</g>
<defs>
<clipPath id="clip0_9_788">
<rect width="34" height="34" fill="white"/>
</clipPath>
</defs>
</svg>
