<svg width="34" height="34" viewBox="0 0 34 34" fill="none" xmlns="http://www.w3.org/2000/svg">
<g clip-path="url(#clip0_9_793)">
<path fill-rule="evenodd" clip-rule="evenodd" d="M3.71877 4.25C1.66496 4.25 1.52683e-05 5.91494 1.52683e-05 7.96875V9.53226C-0.000331025 9.55143 -0.000330196 9.5706 1.52683e-05 9.58974V26.0312C1.52683e-05 28.0851 1.66495 29.75 3.71877 29.75H30.2813C32.3351 29.75 34 28.0851 34 26.0312V9.58938C34.0004 9.57049 34.0004 9.55156 34 9.53262V7.96875C34 5.91494 32.3351 4.25 30.2813 4.25H3.71877ZM30.8125 8.64937V7.96875C30.8125 7.67535 30.5747 7.4375 30.2813 7.4375H3.71877C3.42537 7.4375 3.18752 7.67535 3.18752 7.96875V8.64937L17 16.7463L30.8125 8.64937ZM3.18752 12.3442V26.0312C3.18752 26.3247 3.42537 26.5625 3.71877 26.5625H30.2813C30.5747 26.5625 30.8125 26.3247 30.8125 26.0312V12.3442L17.806 19.9687C17.3083 20.2604 16.6917 20.2604 16.194 19.9687L3.18752 12.3442Z" fill="white"/>
</g>
<defs>
<clipPath id="clip0_9_793">
<rect width="34" height="34" fill="white"/>
</clipPath>
</defs>
</svg>
